<svg width="246" height="270" viewBox="0 0 246 270" fill="none" xmlns="http://www.w3.org/2000/svg">
<path d="M206 0C228.091 3.15688e-06 246 17.9086 246 40V185C246 207.091 228.091 225 206 225H188.46C188.443 225.012 188.427 225.024 188.41 225.036L127.399 267.362C118.065 273.838 105.499 266.066 107.123 254.822L111.432 225H40C17.9086 225 5.2353e-07 207.091 0 185V40C0 17.9086 17.9086 0 40 0H206Z" fill="#007A43"/>
<rect x="27.1079" y="55.0685" width="181.864" height="118.785" rx="13" transform="rotate(-5.48143 27.1079 55.0685)" fill="white"/>
<rect x="46" y="65.9084" width="145.602" height="95.1003" rx="13" transform="rotate(-5.48143 46 65.9084)" fill="#007A42"/>
<mask id="mask0_3_139" style="mask-type:alpha" maskUnits="userSpaceOnUse" x="28" y="38" width="191" height="135">
<rect x="27.1077" y="55.0684" width="181.864" height="118.785" rx="13" transform="rotate(-5.48143 27.1077 55.0684)" fill="#D9D9D9" fill-opacity="0.81"/>
</mask>
<g mask="url(#mask0_3_139)">
<circle cx="195.653" cy="51.0797" r="21.5" transform="rotate(0.537358 195.653 51.0797)" fill="white"/>
<circle cx="207.78" cy="144.198" r="21.5" transform="rotate(0.537358 207.78 144.198)" fill="white"/>
<circle cx="49.5899" cy="163.715" r="21.5" transform="rotate(0.537358 49.5899 163.715)" fill="white"/>
<circle cx="40.4905" cy="67.6252" r="21.5" transform="rotate(0.537358 40.4905 67.6252)" fill="white"/>
</g>
<circle cx="128.5" cy="105.5" r="36.5" fill="white"/>
<mask id="path-10-outside-1_3_139" maskUnits="userSpaceOnUse" x="104.476" y="84.697" width="49.6141" height="43.5245" fill="black">
<rect fill="white" x="104.476" y="84.697" width="49.6141" height="43.5245"/>
<path d="M125.354 107.942L130.285 114.504L127.647 115.281L122.812 108.822C121.622 107.218 120.402 107.056 118.303 107.674L112.848 109.282L115.656 118.814L113.138 119.556L106.691 97.6733L115.384 95.1121C120.06 93.7343 123.334 95.1154 124.5 99.0723C125.33 101.89 124.372 104.388 121.801 106.057C123.113 105.866 124.26 106.44 125.354 107.942ZM109.827 99.0297L112.23 107.183L118.165 105.435C121.522 104.445 122.794 102.572 121.982 99.8141C121.187 97.1163 119.24 96.2566 115.763 97.2811L109.827 99.0297ZM147.67 100.977C149.083 105.773 147.262 109.763 143.125 110.982C140.727 111.688 138.533 111.097 136.991 109.401L139.799 118.933L137.341 119.657L132.113 101.912C131.636 100.293 131.092 98.8893 130.583 97.6057L132.922 96.9168L134.045 99.8437C134.326 97.4805 135.873 95.6562 138.391 94.9144C142.528 93.6956 146.257 96.1804 147.67 100.977ZM145.092 101.736C143.979 97.9592 141.527 96.2708 138.59 97.1363C135.532 98.0372 134.412 100.648 135.542 104.485C136.655 108.262 139.03 109.908 142.087 109.007C145.085 108.124 146.205 105.513 145.092 101.736Z"/>
</mask>
<path d="M125.354 107.942L130.285 114.504L127.647 115.281L122.812 108.822C121.622 107.218 120.402 107.056 118.303 107.674L112.848 109.282L115.656 118.814L113.138 119.556L106.691 97.6733L115.384 95.1121C120.06 93.7343 123.334 95.1154 124.5 99.0723C125.33 101.89 124.372 104.388 121.801 106.057C123.113 105.866 124.26 106.44 125.354 107.942ZM109.827 99.0297L112.23 107.183L118.165 105.435C121.522 104.445 122.794 102.572 121.982 99.8141C121.187 97.1163 119.24 96.2566 115.763 97.2811L109.827 99.0297ZM147.67 100.977C149.083 105.773 147.262 109.763 143.125 110.982C140.727 111.688 138.533 111.097 136.991 109.401L139.799 118.933L137.341 119.657L132.113 101.912C131.636 100.293 131.092 98.8893 130.583 97.6057L132.922 96.9168L134.045 99.8437C134.326 97.4805 135.873 95.6562 138.391 94.9144C142.528 93.6956 146.257 96.1804 147.67 100.977ZM145.092 101.736C143.979 97.9592 141.527 96.2708 138.59 97.1363C135.532 98.0372 134.412 100.648 135.542 104.485C136.655 108.262 139.03 109.908 142.087 109.007C145.085 108.124 146.205 105.513 145.092 101.736Z" fill="#007A43"/>
<path d="M125.354 107.942L124.546 108.531L124.55 108.537L124.555 108.543L125.354 107.942ZM130.285 114.504L130.567 115.463L131.95 115.056L131.084 113.903L130.285 114.504ZM127.647 115.281L126.846 115.88L127.263 116.437L127.929 116.24L127.647 115.281ZM122.812 108.822L122.008 109.417L122.011 109.421L122.812 108.822ZM112.848 109.282L112.565 108.322L111.606 108.605L111.888 109.564L112.848 109.282ZM115.656 118.814L115.939 119.773L116.898 119.491L116.615 118.531L115.656 118.814ZM113.138 119.556L112.179 119.838L112.462 120.798L113.421 120.515L113.138 119.556ZM106.691 97.6733L106.408 96.7141L105.449 96.9967L105.732 97.9559L106.691 97.6733ZM121.801 106.057L121.257 105.219L121.946 107.047L121.801 106.057ZM109.827 99.0297L109.545 98.0705L108.585 98.3531L108.868 99.3124L109.827 99.0297ZM112.23 107.183L111.27 107.466L111.553 108.425L112.512 108.142L112.23 107.183ZM125.354 107.942L124.555 108.543L129.485 115.105L130.285 114.504L131.084 113.903L126.154 107.342L125.354 107.942ZM130.285 114.504L130.002 113.545L127.364 114.322L127.647 115.281L127.929 116.24L130.567 115.463L130.285 114.504ZM127.647 115.281L128.447 114.682L123.612 108.223L122.812 108.822L122.011 109.421L126.846 115.88L127.647 115.281ZM122.812 108.822L123.615 108.226C122.928 107.3 122.14 106.673 121.121 106.44C120.149 106.218 119.116 106.392 118.021 106.715L118.303 107.674L118.586 108.633C119.589 108.338 120.215 108.284 120.675 108.389C121.088 108.484 121.506 108.74 122.008 109.417L122.812 108.822ZM118.303 107.674L118.021 106.715L112.565 108.322L112.848 109.282L113.13 110.241L118.586 108.633L118.303 107.674ZM112.848 109.282L111.888 109.564L114.697 119.097L115.656 118.814L116.615 118.531L113.807 108.999L112.848 109.282ZM115.656 118.814L115.374 117.855L112.856 118.597L113.138 119.556L113.421 120.515L115.939 119.773L115.656 118.814ZM113.138 119.556L114.097 119.273L107.65 97.3907L106.691 97.6733L105.732 97.9559L112.179 119.838L113.138 119.556ZM106.691 97.6733L106.974 98.6325L115.667 96.0713L115.384 95.1121L115.101 94.1529L106.408 96.7141L106.691 97.6733ZM115.384 95.1121L115.667 96.0713C117.874 95.4211 119.603 95.4669 120.863 96.01C122.088 96.5382 123.025 97.604 123.541 99.3549L124.5 99.0723L125.459 98.7896C124.809 96.5837 123.527 94.9806 121.654 94.1734C119.817 93.3812 117.571 93.4253 115.101 94.1529L115.384 95.1121ZM124.5 99.0723L123.541 99.3549C123.902 100.581 123.861 101.682 123.493 102.635C123.124 103.592 122.397 104.478 121.257 105.219L121.801 106.057L122.346 106.896C123.777 105.967 124.814 104.769 125.359 103.355C125.905 101.938 125.928 100.381 125.459 98.7896L124.5 99.0723ZM121.801 106.057L121.946 107.047C122.403 106.98 122.804 107.046 123.196 107.251C123.605 107.465 124.057 107.86 124.546 108.531L125.354 107.942L126.162 107.354C125.557 106.523 124.888 105.879 124.123 105.479C123.341 105.069 122.512 104.943 121.657 105.068L121.801 106.057ZM109.827 99.0297L108.868 99.3124L111.27 107.466L112.23 107.183L113.189 106.901L110.787 98.7471L109.827 99.0297ZM112.23 107.183L112.512 108.142L118.447 106.394L118.165 105.435L117.882 104.475L111.947 106.224L112.23 107.183ZM118.165 105.435L118.447 106.394C120.233 105.868 121.644 105.058 122.464 103.849C123.312 102.601 123.407 101.113 122.941 99.5315L121.982 99.8141L121.023 100.097C121.369 101.273 121.234 102.101 120.81 102.726C120.358 103.391 119.454 104.012 117.882 104.475L118.165 105.435ZM121.982 99.8141L122.941 99.5315C122.488 97.993 121.645 96.803 120.262 96.2282C118.932 95.6759 117.31 95.7828 115.48 96.3218L115.763 97.2811L116.045 98.2403C117.693 97.7549 118.782 97.7794 119.494 98.0752C120.153 98.3487 120.681 98.9374 121.023 100.097L121.982 99.8141ZM115.763 97.2811L115.48 96.3218L109.545 98.0705L109.827 99.0297L110.11 99.989L116.045 98.2403L115.763 97.2811ZM136.991 109.401L137.73 108.728L136.031 109.683L136.991 109.401ZM139.799 118.933L140.082 119.892L141.041 119.61L140.758 118.651L139.799 118.933ZM137.341 119.657L136.382 119.94L136.664 120.899L137.624 120.617L137.341 119.657ZM130.583 97.6057L130.301 96.6464L129.25 96.9559L129.654 97.974L130.583 97.6057ZM132.922 96.9168L133.855 96.5586L133.525 95.6967L132.639 95.9576L132.922 96.9168ZM134.045 99.8437L133.111 100.202L135.038 99.9618L134.045 99.8437ZM147.67 100.977L146.711 101.259C147.365 103.478 147.245 105.42 146.569 106.906C145.899 108.377 144.648 109.49 142.842 110.022L143.125 110.982L143.408 111.941C145.739 111.254 147.466 109.763 148.389 107.735C149.304 105.722 149.389 103.271 148.629 100.694L147.67 100.977ZM143.125 110.982L142.842 110.022C140.784 110.629 138.996 110.12 137.73 108.728L136.991 109.401L136.251 110.074C138.07 112.073 140.67 112.747 143.408 111.941L143.125 110.982ZM136.991 109.401L136.031 109.683L138.84 119.216L139.799 118.933L140.758 118.651L137.95 109.118L136.991 109.401ZM139.799 118.933L139.517 117.974L137.058 118.698L137.341 119.657L137.624 120.617L140.082 119.892L139.799 118.933ZM137.341 119.657L138.3 119.375L133.072 101.629L132.113 101.912L131.153 102.194L136.382 119.94L137.341 119.657ZM132.113 101.912L133.072 101.629C132.581 99.964 132.023 98.525 131.513 97.2374L130.583 97.6057L129.654 97.974C130.161 99.2536 130.69 100.622 131.153 102.194L132.113 101.912ZM130.583 97.6057L130.866 98.5649L133.204 97.876L132.922 96.9168L132.639 95.9576L130.301 96.6464L130.583 97.6057ZM132.922 96.9168L131.988 97.275L133.111 100.202L134.045 99.8437L134.978 99.4855L133.855 96.5586L132.922 96.9168ZM134.045 99.8437L135.038 99.9618C135.268 98.0212 136.514 96.5098 138.674 95.8736L138.391 94.9144L138.109 93.9551C135.232 94.8027 133.383 96.9397 133.052 99.7256L134.045 99.8437ZM138.391 94.9144L138.674 95.8736C140.468 95.3451 142.129 95.6228 143.503 96.5256C144.893 97.4387 146.057 99.0398 146.711 101.259L147.67 100.977L148.629 100.694C147.87 98.1173 146.464 96.0778 144.601 94.8541C142.723 93.6202 140.451 93.2649 138.109 93.9551L138.391 94.9144ZM145.092 101.736L146.052 101.454C145.454 99.4262 144.462 97.833 143.1 96.8769C141.709 95.8999 140.041 95.6664 138.307 96.1771L138.59 97.1363L138.872 98.0956C140.077 97.7408 141.103 97.9187 141.951 98.5137C142.828 99.1296 143.618 100.269 144.133 102.019L145.092 101.736ZM138.59 97.1363L138.307 96.1771C136.542 96.6972 135.23 97.7545 134.573 99.3234C133.932 100.855 133.98 102.721 134.583 104.767L135.542 104.485L136.501 104.202C135.974 102.412 136.017 101.054 136.418 100.096C136.803 99.1748 137.58 98.4763 138.872 98.0956L138.59 97.1363ZM135.542 104.485L134.583 104.767C135.178 106.787 136.15 108.377 137.517 109.322C138.916 110.29 140.596 110.489 142.37 109.966L142.087 109.007L141.804 108.048C140.521 108.426 139.484 108.252 138.654 107.677C137.791 107.08 137.019 105.959 136.501 104.202L135.542 104.485ZM142.087 109.007L142.37 109.966C144.111 109.453 145.405 108.397 146.054 106.842C146.688 105.323 146.647 103.473 146.052 101.454L145.092 101.736L144.133 102.019C144.651 103.776 144.605 105.12 144.208 106.071C143.826 106.986 143.061 107.677 141.804 108.048L142.087 109.007Z" fill="#007A43" mask="url(#path-10-outside-1_3_139)"/>
<circle cx="189" cy="58" r="16" fill="white"/>
<circle cx="197" cy="141" r="16" fill="white"/>
<circle cx="58" cy="155" r="16" fill="white"/>
<circle cx="49" cy="72" r="16" fill="white"/>
</svg>
